<svg width="3000" height="3000" viewBox="0 0 3000 3000" fill="none" xmlns="http://www.w3.org/2000/svg">
<g clip-path="url(#clip0_215_68)">
<rect width="3000" height="3000" fill="white"/>
<rect x="-16" y="-16" width="3016" height="3016" fill="#46301E"/>
<g filter="url(#filter0_f_215_68)">
<rect x="144" width="45" height="3000" fill="#301F11"/>
</g>
<path d="M605.127 1541H602.197C597.119 1544.52 585.986 1550.87 568.799 1560.05C551.611 1569.03 542.529 1573.82 541.553 1574.4C529.834 1580.26 512.646 1583.19 489.99 1583.19C469.482 1583.19 453.662 1577.62 442.529 1566.49C436.475 1560.24 433.447 1552.62 433.447 1543.64C433.447 1529.97 440.088 1519.42 453.369 1512C464.307 1505.75 477.49 1501.16 492.92 1498.23C502.49 1496.28 510.303 1494.91 516.357 1494.13H521.631C535.498 1494.13 554.15 1498.82 577.588 1508.19C577.783 1508.19 578.662 1508.68 580.225 1509.66C581.787 1510.44 583.35 1511.22 584.912 1512C586.475 1512.78 588.232 1513.56 590.186 1514.34C593.896 1516.3 596.826 1518.05 598.975 1519.62C601.123 1520.98 602.197 1521.77 602.197 1521.96C605.127 1523.72 606.982 1524.6 607.764 1524.6C623.193 1504.68 632.471 1489.64 635.596 1479.48C634.229 1479.68 631.592 1479.77 627.686 1479.77C623.975 1479.77 616.846 1478.7 606.299 1476.55C595.752 1474.21 584.326 1470.79 572.021 1466.3C559.912 1461.61 549.463 1455.26 540.674 1447.25C531.885 1439.05 527.49 1430.36 527.49 1421.18C527.49 1417.47 528.955 1415.61 531.885 1415.61L534.521 1418.84C536.084 1420.98 538.037 1423.72 540.381 1427.04C542.92 1430.16 545.654 1433.48 548.584 1437C555.42 1445.4 560.303 1450.28 563.232 1451.65C585.498 1463.76 607.666 1469.81 629.736 1469.81C636.377 1469.81 640.967 1468.74 643.506 1466.59L715.576 1394.81C718.115 1392.08 722.021 1389.64 727.295 1387.49C734.521 1384.56 740.771 1383.09 746.045 1383.09C758.74 1383.09 765.283 1388.17 765.674 1398.33C765.674 1407.9 763.428 1416.69 758.936 1424.7C754.639 1432.51 749.365 1438.95 743.115 1444.03C737.061 1448.91 729.248 1453.5 719.678 1457.8C706.201 1463.86 689.6 1469.52 669.873 1474.79C666.748 1475.57 664.502 1476.16 663.135 1476.55C662.744 1476.94 660.303 1477.92 655.811 1479.48C651.514 1481.04 649.072 1482.02 648.486 1482.41C646.143 1485.93 635.889 1501.94 617.725 1530.46C628.271 1543.93 643.311 1572.94 662.842 1617.47C669.482 1633.09 676.709 1648.23 684.521 1662.88C692.334 1677.53 701.318 1689.15 711.475 1697.74C721.826 1706.53 732.861 1710.93 744.58 1710.93C744.971 1710.93 745.264 1710.93 745.459 1710.93C773.584 1710.93 792.627 1709.75 802.588 1707.41C824.072 1702.72 836.865 1690.71 840.967 1671.38C841.943 1666.3 842.432 1659.95 842.432 1652.33C842.432 1644.71 839.502 1636.61 833.643 1628.02C827.783 1619.42 820.459 1613.17 811.67 1609.27L817.236 1608.68C828.174 1608.68 836.572 1613.56 842.432 1623.33C848.291 1633.09 851.221 1643.05 851.221 1653.21C851.221 1663.37 850.049 1671.96 847.705 1678.99C845.557 1686.02 842.822 1691.88 839.502 1696.57C836.182 1701.26 831.494 1705.16 825.439 1708.29C819.58 1711.61 814.014 1714.15 808.74 1715.91C803.467 1717.66 796.631 1719.03 788.232 1720.01C775.928 1721.18 760.693 1721.77 742.529 1721.77C740.576 1722.16 738.721 1722.35 736.963 1722.35C728.955 1722.35 720.557 1719.23 711.768 1712.98C703.174 1706.92 695.166 1698.23 687.744 1686.9C680.518 1675.57 672.998 1662.49 665.186 1647.64C657.568 1633 650.732 1618.84 644.678 1605.16C629.834 1572.16 616.65 1550.77 605.127 1541ZM471.24 1511.71C463.037 1514.25 456.396 1518.25 451.318 1523.72C446.436 1529.19 443.994 1535.83 443.994 1543.64C443.994 1551.26 446.436 1557.51 451.318 1562.39C459.717 1570.59 472.119 1574.7 488.525 1574.7C512.158 1574.7 528.857 1571.86 538.623 1566.2C545.459 1562.68 555.322 1557.41 568.213 1550.38C581.299 1543.15 588.135 1539.25 588.721 1538.66L593.994 1533.09C589.697 1525.09 578.955 1518.45 561.768 1513.17C544.775 1507.7 531.201 1504.97 521.045 1504.97C510.889 1504.97 502.1 1505.46 494.678 1506.43C487.451 1507.41 479.639 1509.17 471.24 1511.71ZM756.006 1402.72C756.006 1395.3 751.904 1391.59 743.701 1391.59C741.162 1391.59 737.939 1392.27 734.033 1393.64C730.322 1395.01 726.904 1397.25 723.779 1400.38L662.842 1464.25H667.236C677.393 1464.25 689.209 1461.8 702.686 1456.92C716.162 1451.84 728.369 1444.42 739.307 1434.66C750.439 1424.7 756.006 1414.05 756.006 1402.72ZM705.029 1556.24C704.834 1554.48 704.736 1552.82 704.736 1551.26C704.736 1538.76 708.838 1525.87 717.041 1512.59C725.439 1499.3 736.182 1492.66 749.268 1492.66C751.807 1492.66 753.857 1493.45 755.42 1495.01C756.982 1496.38 757.764 1498.82 757.764 1502.33C757.764 1505.65 756.787 1509.66 754.834 1514.34C753.076 1518.84 750.244 1523.43 746.338 1528.11C742.627 1532.8 739.404 1536.61 736.67 1539.54C733.936 1542.47 730.029 1546.28 724.951 1550.96C720.068 1555.65 717.139 1558.48 716.162 1559.46C715.967 1561.02 715.869 1561.9 715.869 1562.1C715.869 1567.37 718.408 1571.47 723.486 1574.4C728.564 1577.33 733.838 1578.8 739.307 1578.8C752.393 1578.8 762.744 1576.45 770.361 1571.77C778.174 1567.08 787.158 1559.17 797.314 1548.04C798.877 1546.08 799.756 1544.52 799.951 1543.35C800.342 1542.18 801.416 1540.91 803.174 1539.54C805.127 1540.32 806.104 1542.18 806.104 1545.11C804.15 1551.16 800.244 1557.7 794.385 1564.73C788.525 1571.57 781.592 1577.43 773.584 1582.31C762.451 1588.76 752.979 1591.98 745.166 1591.98C737.549 1591.98 730.127 1589.34 722.9 1584.07C715.674 1578.8 709.717 1569.52 705.029 1556.24ZM749.854 1503.5C741.455 1503.5 733.643 1508 726.416 1516.98C719.189 1525.96 715.576 1534.56 715.576 1542.76C715.576 1545.5 715.771 1547.45 716.162 1548.62C723.389 1544.71 730.811 1538.07 738.428 1528.7C746.045 1519.13 749.854 1510.73 749.854 1503.5ZM805.518 1524.89L802.002 1525.77C801.416 1526.36 799.756 1526.84 797.021 1527.23C794.287 1527.62 791.65 1527.62 789.111 1527.23C786.572 1526.84 785.4 1525.87 785.596 1524.3C785.205 1518.64 788.818 1516.1 796.436 1516.69C804.443 1517.27 809.131 1514.73 810.498 1509.07L824.268 1456.63L829.834 1451.06C831.787 1451.65 832.764 1453.41 832.764 1456.34L832.471 1459.27L818.701 1514.64V1516.1C820.264 1516.69 822.607 1516.98 825.732 1516.98C828.857 1516.98 834.424 1515.91 842.432 1513.76C850.439 1511.41 855.029 1510.24 856.201 1510.24C856.201 1520.98 848.975 1526.36 834.521 1526.36C830.029 1526.36 824.951 1525.87 819.287 1524.89C814.99 1534.66 812.842 1543.64 812.842 1551.84C812.842 1559.85 814.99 1567.27 819.287 1574.11C823.584 1580.75 830.225 1584.07 839.209 1584.07C848.389 1582.7 855.42 1580.55 860.303 1577.62C865.381 1574.5 869.092 1572.35 871.436 1571.18C873.779 1569.81 876.123 1569.13 878.467 1569.13C880.811 1569.13 883.35 1569.42 886.084 1570.01C880.615 1579.77 864.795 1586.22 838.623 1589.34C838.037 1589.34 837.549 1589.34 837.158 1589.34C823.682 1589.34 814.6 1584.36 809.912 1574.4C806.396 1567.18 804.639 1558.88 804.639 1549.5C804.639 1539.93 804.932 1531.73 805.518 1524.89ZM879.053 1524.89L875.537 1525.77C874.951 1526.36 873.291 1526.84 870.557 1527.23C867.822 1527.62 865.186 1527.62 862.646 1527.23C860.107 1526.84 858.936 1525.87 859.131 1524.3C858.74 1518.64 862.354 1516.1 869.971 1516.69C877.979 1517.27 882.666 1514.73 884.033 1509.07L897.803 1456.63L903.369 1451.06C905.322 1451.65 906.299 1453.41 906.299 1456.34L906.006 1459.27L892.236 1514.64V1516.1C893.799 1516.69 896.143 1516.98 899.268 1516.98C902.393 1516.98 907.959 1515.91 915.967 1513.76C923.975 1511.41 928.564 1510.24 929.736 1510.24C929.736 1520.98 922.51 1526.36 908.057 1526.36C903.564 1526.36 898.486 1525.87 892.822 1524.89C888.525 1534.66 886.377 1543.64 886.377 1551.84C886.377 1559.85 888.525 1567.27 892.822 1574.11C897.119 1580.75 903.76 1584.07 912.744 1584.07C921.924 1582.7 928.955 1580.55 933.838 1577.62C938.916 1574.5 942.627 1572.35 944.971 1571.18C947.314 1569.81 949.658 1569.13 952.002 1569.13C954.346 1569.13 956.885 1569.42 959.619 1570.01C954.15 1579.77 938.33 1586.22 912.158 1589.34C911.572 1589.34 911.084 1589.34 910.693 1589.34C897.217 1589.34 888.135 1584.36 883.447 1574.4C879.932 1567.18 878.174 1558.88 878.174 1549.5C878.174 1539.93 878.467 1531.73 879.053 1524.89ZM947.607 1556.24C947.412 1554.48 947.314 1552.82 947.314 1551.26C947.314 1538.76 951.416 1525.87 959.619 1512.59C968.018 1499.3 978.76 1492.66 991.846 1492.66C994.385 1492.66 996.436 1493.45 997.998 1495.01C999.561 1496.38 1000.34 1498.82 1000.34 1502.33C1000.34 1505.65 999.365 1509.66 997.412 1514.34C995.654 1518.84 992.822 1523.43 988.916 1528.11C985.205 1532.8 981.982 1536.61 979.248 1539.54C976.514 1542.47 972.607 1546.28 967.529 1550.96C962.646 1555.65 959.717 1558.48 958.74 1559.46C958.545 1561.02 958.447 1561.9 958.447 1562.1C958.447 1567.37 960.986 1571.47 966.064 1574.4C971.143 1577.33 976.416 1578.8 981.885 1578.8C994.971 1578.8 1005.32 1576.45 1012.94 1571.77C1020.75 1567.08 1029.74 1559.17 1039.89 1548.04C1041.46 1546.08 1042.33 1544.52 1042.53 1543.35C1042.92 1542.18 1043.99 1540.91 1045.75 1539.54C1047.71 1540.32 1048.68 1542.18 1048.68 1545.11C1046.73 1551.16 1042.82 1557.7 1036.96 1564.73C1031.1 1571.57 1024.17 1577.43 1016.16 1582.31C1005.03 1588.76 995.557 1591.98 987.744 1591.98C980.127 1591.98 972.705 1589.34 965.479 1584.07C958.252 1578.8 952.295 1569.52 947.607 1556.24ZM992.432 1503.5C984.033 1503.5 976.221 1508 968.994 1516.98C961.768 1525.96 958.154 1534.56 958.154 1542.76C958.154 1545.5 958.35 1547.45 958.74 1548.62C965.967 1544.71 973.389 1538.07 981.006 1528.7C988.623 1519.13 992.432 1510.73 992.432 1503.5ZM1120.46 1568.25C1120.65 1572.74 1124.07 1574.99 1130.71 1574.99C1134.62 1574.99 1139.01 1574.21 1143.9 1572.64C1148.78 1571.08 1153.47 1570.11 1157.96 1569.71C1162.65 1569.32 1164.99 1570.5 1164.99 1573.23C1156.79 1578.7 1145.46 1581.92 1131.01 1582.9C1130.22 1583.09 1129.44 1583.19 1128.66 1583.19C1123.19 1583.19 1118.9 1581.92 1115.77 1579.38C1112.84 1576.65 1111.38 1573.72 1111.38 1570.59C1111.38 1567.47 1111.57 1564.83 1111.96 1562.68C1111.96 1558.39 1112.84 1552.14 1114.6 1543.93C1116.55 1535.73 1117.53 1529.58 1117.53 1525.48C1114.01 1525.48 1107.96 1526.26 1099.37 1527.82C1090.97 1529.19 1084.91 1530.46 1081.2 1531.63C1076.32 1556.04 1067.82 1572.25 1055.71 1580.26C1052.2 1582.61 1049.46 1583.78 1047.51 1583.78C1045.75 1583.78 1044.38 1583.39 1043.41 1582.61C1042.63 1581.63 1042.24 1580.55 1042.24 1579.38C1042.24 1578.02 1043.12 1576.26 1044.87 1574.11C1050.93 1574.5 1055.42 1571.57 1058.35 1565.32C1061.28 1559.46 1063.62 1553.21 1065.38 1546.57C1067.33 1539.73 1068.9 1534.75 1070.07 1531.63C1060.89 1527.92 1056.3 1523.23 1056.3 1517.57C1056.3 1507.21 1060.79 1500.18 1069.78 1496.47C1072.9 1495.3 1076.03 1494.71 1079.15 1494.71C1082.28 1494.71 1085.11 1495.79 1087.65 1497.94C1090.38 1500.09 1091.75 1503.11 1091.75 1507.02C1091.75 1510.93 1089.21 1516.3 1084.13 1523.13C1084.72 1523.13 1088.23 1522.35 1094.68 1520.79C1112.45 1516.1 1123.19 1513.76 1126.9 1513.76C1126.9 1519.81 1125.83 1528.99 1123.68 1541.3C1121.53 1553.41 1120.46 1562.39 1120.46 1568.25ZM1076.51 1502.62C1072.8 1502.62 1069.68 1506.63 1067.14 1514.64C1067.14 1518.15 1069.97 1520.98 1075.63 1523.13C1079.74 1519.03 1081.79 1515.03 1081.79 1511.12C1081.79 1509.56 1081.3 1507.8 1080.32 1505.85C1079.54 1503.7 1078.27 1502.62 1076.51 1502.62ZM1294.78 1524.89L1291.26 1525.77C1290.67 1526.36 1289.01 1526.84 1286.28 1527.23C1283.54 1527.62 1280.91 1527.62 1278.37 1527.23C1275.83 1526.84 1274.66 1525.87 1274.85 1524.3C1274.46 1518.64 1278.08 1516.1 1285.69 1516.69C1293.7 1517.27 1298.39 1514.73 1299.76 1509.07L1313.53 1456.63L1319.09 1451.06C1321.04 1451.65 1322.02 1453.41 1322.02 1456.34L1321.73 1459.27L1307.96 1514.64V1516.1C1309.52 1516.69 1311.87 1516.98 1314.99 1516.98C1318.12 1516.98 1323.68 1515.91 1331.69 1513.76C1339.7 1511.41 1344.29 1510.24 1345.46 1510.24C1345.46 1520.98 1338.23 1526.36 1323.78 1526.36C1319.29 1526.36 1314.21 1525.87 1308.54 1524.89C1304.25 1534.66 1302.1 1543.64 1302.1 1551.84C1302.1 1559.85 1304.25 1567.27 1308.54 1574.11C1312.84 1580.75 1319.48 1584.07 1328.47 1584.07C1337.65 1582.7 1344.68 1580.55 1349.56 1577.62C1354.64 1574.5 1358.35 1572.35 1360.69 1571.18C1363.04 1569.81 1365.38 1569.13 1367.72 1569.13C1370.07 1569.13 1372.61 1569.42 1375.34 1570.01C1369.87 1579.77 1354.05 1586.22 1327.88 1589.34C1327.29 1589.34 1326.81 1589.34 1326.42 1589.34C1312.94 1589.34 1303.86 1584.36 1299.17 1574.4C1295.65 1567.18 1293.9 1558.88 1293.9 1549.5C1293.9 1539.93 1294.19 1531.73 1294.78 1524.89ZM1445.65 1504.09L1446.24 1515.22C1446.24 1519.32 1445.95 1522.55 1445.36 1524.89C1444.97 1527.04 1444.68 1528.7 1444.48 1529.87C1444.29 1531.04 1443.8 1532.61 1443.02 1534.56C1442.24 1536.32 1441.75 1537.59 1441.55 1538.37C1441.36 1539.15 1440.67 1540.61 1439.5 1542.76C1438.33 1544.91 1437.55 1546.28 1437.16 1546.86C1436.96 1547.45 1436.08 1549.11 1434.52 1551.84C1433.15 1554.38 1432.28 1556.04 1431.88 1556.82H1437.74C1449.07 1556.82 1465.67 1551.36 1487.55 1540.42L1489.89 1543.05C1471.14 1558.09 1449.07 1566.3 1423.68 1567.66L1397.9 1583.48C1395.56 1585.44 1390.38 1586.41 1382.37 1586.41C1374.56 1586.41 1369.48 1584.27 1367.14 1579.97C1364.99 1575.48 1363.92 1568.54 1363.92 1559.17C1363.92 1549.79 1367.82 1539.15 1375.63 1527.23C1383.64 1515.32 1392.82 1509.36 1403.17 1509.36C1407.86 1509.36 1410.89 1511.32 1412.26 1515.22C1401.32 1518.54 1391.94 1524.3 1384.13 1532.51C1376.32 1540.71 1372.41 1550.18 1372.41 1560.93C1372.41 1564.64 1372.61 1567.57 1373 1569.71C1373.39 1571.86 1374.46 1573.82 1376.22 1575.57C1377.98 1577.33 1381.4 1578.21 1386.47 1578.21C1397.02 1578.21 1405.62 1573.82 1412.26 1565.03C1410.3 1561.71 1409.33 1556.34 1409.33 1548.91C1409.33 1541.3 1409.91 1534.17 1411.08 1527.53C1412.45 1520.69 1415.09 1514.15 1418.99 1507.9C1422.9 1501.65 1427.78 1498.52 1433.64 1498.52C1439.5 1498.52 1443.51 1500.38 1445.65 1504.09ZM1438.04 1517.86L1438.33 1514.05C1438.33 1510.14 1437.16 1507.8 1434.81 1507.02C1429.74 1509.95 1425.63 1515.22 1422.51 1522.84C1419.38 1530.46 1417.82 1537.49 1417.82 1543.93C1417.82 1550.38 1418.8 1553.8 1420.75 1554.19C1426.22 1551.06 1430.42 1545.98 1433.35 1538.95C1436.47 1531.92 1438.04 1525.09 1438.04 1518.45V1517.86ZM1615.87 1524.89L1612.35 1525.77C1611.77 1526.36 1610.11 1526.84 1607.37 1527.23C1604.64 1527.62 1602 1527.62 1599.46 1527.23C1596.92 1526.84 1595.75 1525.87 1595.95 1524.3C1595.56 1518.64 1599.17 1516.1 1606.79 1516.69C1614.79 1517.27 1619.48 1514.73 1620.85 1509.07L1634.62 1456.63L1640.19 1451.06C1642.14 1451.65 1643.12 1453.41 1643.12 1456.34L1642.82 1459.27L1629.05 1514.64V1516.1C1630.62 1516.69 1632.96 1516.98 1636.08 1516.98C1639.21 1516.98 1644.78 1515.91 1652.78 1513.76C1660.79 1511.41 1665.38 1510.24 1666.55 1510.24C1666.55 1520.98 1659.33 1526.36 1644.87 1526.36C1640.38 1526.36 1635.3 1525.87 1629.64 1524.89C1625.34 1534.66 1623.19 1543.64 1623.19 1551.84C1623.19 1559.85 1625.34 1567.27 1629.64 1574.11C1633.94 1580.75 1640.58 1584.07 1649.56 1584.07C1658.74 1582.7 1665.77 1580.55 1670.65 1577.62C1675.73 1574.5 1679.44 1572.35 1681.79 1571.18C1684.13 1569.81 1686.47 1569.13 1688.82 1569.13C1691.16 1569.13 1693.7 1569.42 1696.44 1570.01C1690.97 1579.77 1675.15 1586.22 1648.97 1589.34C1648.39 1589.34 1647.9 1589.34 1647.51 1589.34C1634.03 1589.34 1624.95 1584.36 1620.26 1574.4C1616.75 1567.18 1614.99 1558.88 1614.99 1549.5C1614.99 1539.93 1615.28 1531.73 1615.87 1524.89ZM1801.9 1573.52C1791.36 1581.14 1779.83 1584.95 1767.33 1584.95C1760.89 1584.95 1755.62 1583 1751.51 1579.09C1747.61 1575.18 1745.17 1570.3 1744.19 1564.44C1743.21 1558.39 1742.53 1553.02 1742.14 1548.33C1741.94 1543.45 1741.85 1539.44 1741.85 1536.32C1741.85 1533 1742.04 1529.58 1742.43 1526.06C1741.85 1523.91 1739.11 1522.84 1734.23 1522.84C1729.54 1522.84 1724.95 1525.28 1720.46 1530.16C1715.97 1535.05 1712.26 1540.91 1709.33 1547.74C1706.59 1554.38 1703.86 1561.02 1701.12 1567.66C1698.58 1574.3 1696.14 1579.29 1693.8 1582.61C1691.46 1585.93 1689.5 1587.59 1687.94 1587.59C1686.38 1587.59 1685.21 1587.39 1684.42 1587C1684.23 1585.83 1684.13 1584.46 1684.13 1582.9C1684.13 1573.13 1687.55 1552.14 1694.38 1519.91C1701.22 1487.68 1707.96 1460.05 1714.6 1437C1714.99 1435.63 1716.06 1432.7 1717.82 1428.21C1719.78 1423.52 1721.83 1420.2 1723.97 1418.25C1726.12 1416.1 1728.37 1415.03 1730.71 1415.03C1733.06 1415.03 1734.91 1415.52 1736.28 1416.49V1415.91C1738.23 1417.27 1739.79 1420.59 1740.97 1425.87C1742.14 1431.14 1742.72 1435.34 1742.72 1438.46C1742.72 1456.82 1737.94 1473.62 1728.37 1488.86C1724.46 1495.11 1720.56 1500.96 1716.65 1506.43C1712.74 1511.9 1709.62 1517.08 1707.28 1521.96C1705.13 1526.84 1704.05 1530.46 1704.05 1532.8C1704.05 1535.14 1704.05 1536.61 1704.05 1537.2C1714.79 1522.16 1726.22 1514.64 1738.33 1514.64C1742.63 1514.64 1745.75 1515.12 1747.71 1516.1C1749.27 1517.08 1750.24 1518.45 1750.63 1520.2C1751.03 1521.77 1751.22 1525.96 1751.22 1532.8C1751.42 1539.44 1751.71 1545.2 1752.1 1550.09C1752.69 1554.77 1753.56 1559.85 1754.74 1565.32C1755.91 1570.59 1757.47 1574.01 1759.42 1575.57C1761.57 1577.14 1763.53 1577.92 1765.28 1577.92C1767.04 1577.92 1768.9 1577.43 1770.85 1576.45C1788.04 1568.05 1799.37 1563.86 1804.83 1563.86C1807.37 1563.86 1808.64 1564.64 1808.64 1566.2C1808.64 1567.76 1806.4 1570.2 1801.9 1573.52ZM1722.8 1440.52C1715.58 1468.45 1711.87 1484.36 1711.67 1488.27C1711.67 1491.98 1711.67 1494.03 1711.67 1494.42L1711.96 1498.52C1721.14 1494.81 1727.69 1478.6 1731.59 1449.89C1732.76 1441.49 1733.35 1434.66 1733.35 1429.38C1733.35 1424.11 1732.47 1421.47 1730.71 1421.47C1728.96 1421.47 1726.32 1427.82 1722.8 1440.52ZM1802.78 1556.24C1802.59 1554.48 1802.49 1552.82 1802.49 1551.26C1802.49 1538.76 1806.59 1525.87 1814.79 1512.59C1823.19 1499.3 1833.94 1492.66 1847.02 1492.66C1849.56 1492.66 1851.61 1493.45 1853.17 1495.01C1854.74 1496.38 1855.52 1498.82 1855.52 1502.33C1855.52 1505.65 1854.54 1509.66 1852.59 1514.34C1850.83 1518.84 1848 1523.43 1844.09 1528.11C1840.38 1532.8 1837.16 1536.61 1834.42 1539.54C1831.69 1542.47 1827.78 1546.28 1822.71 1550.96C1817.82 1555.65 1814.89 1558.48 1813.92 1559.46C1813.72 1561.02 1813.62 1561.9 1813.62 1562.1C1813.62 1567.37 1816.16 1571.47 1821.24 1574.4C1826.32 1577.33 1831.59 1578.8 1837.06 1578.8C1850.15 1578.8 1860.5 1576.45 1868.12 1571.77C1875.93 1567.08 1884.91 1559.17 1895.07 1548.04C1896.63 1546.08 1897.51 1544.52 1897.71 1543.35C1898.1 1542.18 1899.17 1540.91 1900.93 1539.54C1902.88 1540.32 1903.86 1542.18 1903.86 1545.11C1901.9 1551.16 1898 1557.7 1892.14 1564.73C1886.28 1571.57 1879.35 1577.43 1871.34 1582.31C1860.21 1588.76 1850.73 1591.98 1842.92 1591.98C1835.3 1591.98 1827.88 1589.34 1820.65 1584.07C1813.43 1578.8 1807.47 1569.52 1802.78 1556.24ZM1847.61 1503.5C1839.21 1503.5 1831.4 1508 1824.17 1516.98C1816.94 1525.96 1813.33 1534.56 1813.33 1542.76C1813.33 1545.5 1813.53 1547.45 1813.92 1548.62C1821.14 1544.71 1828.56 1538.07 1836.18 1528.7C1843.8 1519.13 1847.61 1510.73 1847.61 1503.5ZM2040.38 1540.12C2039.4 1535.83 2038.92 1529.29 2038.92 1520.5C2038.92 1511.71 2041.16 1498.13 2045.65 1479.77C2052.1 1453.02 2061.96 1427.82 2075.24 1404.19C2088.72 1380.55 2102.39 1367.47 2116.26 1364.93C2120.36 1364.93 2123.88 1366.39 2126.81 1369.32C2129.74 1372.25 2132.08 1374.79 2133.84 1376.94C2135.79 1379.09 2137.74 1383.39 2139.7 1389.83C2141.85 1396.08 2142.92 1401.26 2142.92 1405.36C2142.92 1409.46 2142.82 1412.78 2142.63 1415.32C2142.63 1417.27 2141.26 1418.25 2138.53 1418.25H2137.65C2137.45 1418.25 2137.35 1418.15 2137.35 1417.96C2136.18 1400.96 2133.54 1389.54 2129.44 1383.68C2125.73 1378.6 2120.85 1375.96 2114.79 1375.77C2106.79 1375.77 2097.31 1385.14 2086.38 1403.89C2075.63 1422.64 2066.55 1442.86 2059.13 1464.54C2051.9 1486.02 2048.29 1502.92 2048.29 1515.22C2048.29 1527.33 2052 1540.52 2059.42 1554.77C2066.85 1568.84 2077.29 1575.87 2090.77 1575.87C2104.25 1575.87 2117.33 1568.84 2130.03 1554.77C2142.92 1540.71 2150.83 1526.45 2153.76 1512C2155.91 1512.59 2156.98 1514.34 2156.98 1517.27C2156.98 1520.01 2156.79 1521.96 2156.4 1523.13C2151.9 1537.59 2143.12 1551.84 2130.03 1565.91C2117.14 1579.97 2104.25 1587 2091.36 1587C2078.66 1587 2067.82 1582.21 2058.84 1572.64C2050.05 1563.07 2043.9 1552.23 2040.38 1540.12ZM2163.13 1553.02C2163.92 1531.14 2170.17 1504.58 2181.88 1473.33C2193.6 1442.08 2203.47 1425.09 2211.47 1422.35C2213.82 1422.35 2215.48 1424.6 2216.46 1429.09C2217.43 1433.58 2217.92 1437.29 2217.92 1440.22C2217.92 1450.77 2215.67 1463.27 2211.18 1477.72C2206.69 1491.98 2201.42 1503.5 2195.36 1512.29C2193.02 1516.2 2189.79 1520.3 2185.69 1524.6C2181.79 1528.89 2178.76 1532.9 2176.61 1536.61C2174.66 1540.12 2173.68 1544.62 2173.68 1550.09C2173.68 1559.85 2176.32 1567.86 2181.59 1574.11C2187.06 1580.36 2194.68 1583.48 2204.44 1583.48C2220.65 1583.48 2230.91 1577.92 2235.21 1566.79H2238.43C2238.43 1574.4 2234.62 1580.46 2227 1584.95C2219.38 1589.44 2210.79 1591.69 2201.22 1591.69C2191.65 1591.69 2183.45 1588.07 2176.61 1580.85C2169.78 1573.43 2165.28 1564.15 2163.13 1553.02ZM2210.3 1441.98C2208.74 1443.74 2206.1 1447.84 2202.39 1454.29C2198.88 1460.73 2196.83 1464.93 2196.24 1466.88C2183.15 1501.06 2176.61 1519.52 2176.61 1522.25C2184.81 1516.59 2192.43 1504.77 2199.46 1486.8C2206.49 1468.64 2210.11 1453.7 2210.3 1441.98ZM2312.55 1504.09L2313.13 1515.22C2313.13 1519.32 2312.84 1522.55 2312.26 1524.89C2311.87 1527.04 2311.57 1528.7 2311.38 1529.87C2311.18 1531.04 2310.69 1532.61 2309.91 1534.56C2309.13 1536.32 2308.64 1537.59 2308.45 1538.37C2308.25 1539.15 2307.57 1540.61 2306.4 1542.76C2305.22 1544.91 2304.44 1546.28 2304.05 1546.86C2303.86 1547.45 2302.98 1549.11 2301.42 1551.84C2300.05 1554.38 2299.17 1556.04 2298.78 1556.82H2304.64C2315.97 1556.82 2332.57 1551.36 2354.44 1540.42L2356.79 1543.05C2338.04 1558.09 2315.97 1566.3 2290.58 1567.66L2264.79 1583.48C2262.45 1585.44 2257.28 1586.41 2249.27 1586.41C2241.46 1586.41 2236.38 1584.27 2234.03 1579.97C2231.88 1575.48 2230.81 1568.54 2230.81 1559.17C2230.81 1549.79 2234.72 1539.15 2242.53 1527.23C2250.54 1515.32 2259.72 1509.36 2270.07 1509.36C2274.76 1509.36 2277.78 1511.32 2279.15 1515.22C2268.21 1518.54 2258.84 1524.3 2251.03 1532.51C2243.21 1540.71 2239.31 1550.18 2239.31 1560.93C2239.31 1564.64 2239.5 1567.57 2239.89 1569.71C2240.28 1571.86 2241.36 1573.82 2243.12 1575.57C2244.87 1577.33 2248.29 1578.21 2253.37 1578.21C2263.92 1578.21 2272.51 1573.82 2279.15 1565.03C2277.2 1561.71 2276.22 1556.34 2276.22 1548.91C2276.22 1541.3 2276.81 1534.17 2277.98 1527.53C2279.35 1520.69 2281.98 1514.15 2285.89 1507.9C2289.79 1501.65 2294.68 1498.52 2300.54 1498.52C2306.4 1498.52 2310.4 1500.38 2312.55 1504.09ZM2304.93 1517.86L2305.22 1514.05C2305.22 1510.14 2304.05 1507.8 2301.71 1507.02C2296.63 1509.95 2292.53 1515.22 2289.4 1522.84C2286.28 1530.46 2284.72 1537.49 2284.72 1543.93C2284.72 1550.38 2285.69 1553.8 2287.65 1554.19C2293.12 1551.06 2297.31 1545.98 2300.24 1538.95C2303.37 1531.92 2304.93 1525.09 2304.93 1518.45V1517.86ZM2414.5 1514.64C2411.96 1527.53 2410.69 1538.27 2410.69 1546.86C2410.69 1555.46 2411.28 1561.8 2412.45 1565.91C2413.82 1569.81 2415.97 1572.84 2418.9 1574.99C2422.02 1577.14 2424.66 1578.31 2426.81 1578.5C2429.15 1578.7 2431.98 1578.7 2435.3 1578.5C2449.37 1571.67 2457.76 1568.25 2460.5 1568.25C2463.43 1568.25 2464.89 1568.74 2464.89 1569.71C2464.89 1571.08 2462.06 1573.43 2456.4 1576.75C2450.73 1580.07 2443.7 1582.51 2435.3 1584.07C2413.82 1584.07 2403.08 1574.3 2403.08 1554.77C2403.08 1552.62 2403.17 1550.38 2403.37 1548.04C2402.2 1550.18 2400.54 1553.5 2398.39 1558C2396.44 1562.29 2394.87 1565.61 2393.7 1567.96C2392.53 1570.3 2390.77 1573.13 2388.43 1576.45C2386.08 1579.58 2383.74 1581.92 2381.4 1583.48C2374.95 1587.59 2367.43 1589.64 2358.84 1589.64C2355.13 1589.25 2352.1 1588.37 2349.76 1587C2345.85 1584.85 2343.9 1580.26 2343.9 1573.23C2343.9 1560.73 2351.81 1539.93 2367.63 1510.83C2368.8 1513.17 2369.38 1515.81 2369.38 1518.74C2369.38 1521.47 2368.41 1525.38 2366.46 1530.46C2364.7 1535.34 2361.77 1542.18 2357.67 1550.96C2353.76 1559.75 2351.51 1567.57 2350.93 1574.4C2350.93 1578.5 2352.29 1580.75 2355.03 1581.14C2356.01 1581.14 2357.96 1581.14 2360.89 1581.14C2368.12 1581.14 2375.44 1576.84 2382.86 1568.25C2390.48 1559.46 2396.44 1549.99 2400.73 1539.83C2405.03 1529.48 2407.18 1521.28 2407.18 1515.22L2410.4 1511.71C2413.13 1511.71 2414.5 1512.68 2414.5 1514.64ZM2454.64 1564.15C2458.54 1551.26 2462.74 1540.91 2467.24 1533.09C2471.92 1525.28 2477.49 1519.71 2483.94 1516.39C2490.38 1512.88 2496.24 1510.73 2501.51 1509.95C2506.79 1508.97 2514.11 1508.48 2523.49 1508.48C2524.07 1506.14 2525.05 1501.55 2526.42 1494.71C2527.78 1487.68 2528.76 1483 2529.35 1480.65C2530.13 1478.11 2531.2 1474.3 2532.57 1469.23C2534.91 1460.83 2537.26 1454.48 2539.6 1450.18C2542.14 1445.69 2543.7 1442.86 2544.29 1441.69C2544.87 1440.52 2545.26 1439.73 2545.46 1439.34C2545.85 1438.76 2546.34 1438.17 2546.92 1437.59C2547.71 1436.8 2548.97 1436.41 2550.73 1436.41C2556.79 1436.41 2559.81 1442.86 2559.81 1455.75V1458.39C2559.81 1468.54 2555.52 1482.61 2546.92 1500.57C2538.33 1518.35 2534.03 1531.92 2534.03 1541.3C2534.03 1562.2 2539.7 1572.64 2551.03 1572.64C2554.74 1572.64 2559.81 1571.18 2566.26 1568.25C2572.71 1565.32 2577.78 1563.86 2581.49 1563.86L2584.42 1564.15C2581.1 1569.23 2576.12 1573.23 2569.48 1576.16C2563.04 1579.09 2557.67 1580.55 2553.37 1580.55C2549.27 1580.55 2546.44 1580.46 2544.87 1580.26C2543.31 1580.07 2541.85 1579.68 2540.48 1579.09C2539.11 1578.31 2537.94 1577.72 2536.96 1577.33C2536.18 1576.94 2535.21 1576.06 2534.03 1574.7C2533.06 1573.13 2532.28 1572.06 2531.69 1571.47C2531.3 1570.89 2530.62 1569.52 2529.64 1567.37C2528.66 1565.22 2527.98 1563.86 2527.59 1563.27C2527.39 1562.68 2526.71 1561.02 2525.54 1558.29C2524.56 1555.55 2523.88 1553.8 2523.49 1553.02C2522.9 1553.6 2520.65 1556.04 2516.75 1560.34C2512.84 1564.44 2510.11 1567.27 2508.54 1568.84C2506.98 1570.2 2504.25 1572.55 2500.34 1575.87C2496.63 1579.19 2493.51 1581.53 2490.97 1582.9C2483.74 1586.8 2477.29 1588.76 2471.63 1588.76C2466.16 1588.76 2462.16 1587.49 2459.62 1584.95C2457.28 1582.21 2455.81 1579.38 2455.22 1576.45C2454.83 1573.33 2454.64 1569.23 2454.64 1564.15ZM2507.67 1519.32C2496.73 1519.32 2486.87 1524.4 2478.08 1534.56C2469.48 1544.71 2465.19 1554.97 2465.19 1565.32C2465.19 1575.48 2467.92 1580.55 2473.39 1580.55C2481.01 1580.55 2490.77 1574.79 2502.69 1563.27C2514.79 1551.55 2520.85 1541.59 2520.85 1533.39C2520.85 1528.5 2519.78 1524.99 2517.63 1522.84C2515.67 1520.5 2512.35 1519.32 2507.67 1519.32ZM2551.32 1450.48C2546.24 1457.51 2542.04 1466.98 2538.72 1478.89C2535.6 1490.61 2534.03 1500.48 2534.03 1508.48C2534.03 1508.88 2534.13 1509.75 2534.33 1511.12L2536.96 1508.48C2539.31 1506.14 2544.09 1492.27 2551.32 1466.88L2551.61 1463.37C2551.61 1461.02 2551.61 1459.56 2551.61 1458.97C2551.61 1458.39 2551.51 1456.92 2551.32 1454.58C2551.32 1452.23 2551.32 1450.87 2551.32 1450.48Z" fill="#FFF1C1"/>
</g>
<defs>
<filter id="filter0_f_215_68" x="140" y="-4" width="53" height="3008" filterUnits="userSpaceOnUse" color-interpolation-filters="sRGB">
<feFlood flood-opacity="0" result="BackgroundImageFix"/>
<feBlend mode="normal" in="SourceGraphic" in2="BackgroundImageFix" result="shape"/>
<feGaussianBlur stdDeviation="2" result="effect1_foregroundBlur_215_68"/>
</filter>
<clipPath id="clip0_215_68">
<rect width="3000" height="3000" fill="white"/>
</clipPath>
</defs>
</svg>
